<svg xmlns="http://www.w3.org/2000/svg" viewBox="0 0 93 72"><path d="M75.54 72H4.323C1.935 72 0 70.213 0 68.008V3.992C0 1.787 1.935 0 4.323 0H75.54c1.791 0 3.397 1.02 4.037 2.565l13.016 31.396a5.315 5.315 0 010 4.077L79.578 69.435C78.937 70.98 77.332 72 75.54 72z" fill="#00aeef"/><path d="M23.904 21.49c.042.803.079 1.541.113 2.214.035.673.065 1.23.094 1.67a.223.223 0 00.222.208h1.359c.061 0 .12-.025.162-.069s.065-.104.061-.165c-.124-2.348-.251-4.655-.381-6.92a4459.01 4459.01 0 00-.298-5.142l-.104-1.799a.225.225 0 00-.089-.165 2.08 2.08 0 00-.335-.186c-.176-.084-.413-.125-.724-.125-.483 0-.85.118-1.093.351-.214.208-.39.434-.525.672a91.231 91.231 0 00-1.228 2.373c-.282.564-.581 1.164-.896 1.802l-.086.173c-.287.577-.566 1.141-.841 1.69-.302.604-.584 1.163-.843 1.677-.162.319-.302.597-.421.835-.132-.258-.288-.567-.467-.926-.281-.564-.591-1.175-.927-1.834s-.679-1.338-1.029-2.037a232.246 232.246 0 00-1.752-3.442 16.311 16.311 0 00-.431-.805 1.63 1.63 0 00-.475-.359c-.21-.114-.495-.171-.847-.171-.298 0-.571.101-.811.299-.245.202-.386.483-.421.837-.123 2.17-.247 4.37-.371 6.601-.123 2.231-.24 4.431-.35 6.601a.224.224 0 00.223.233h1.359c.12 0 .218-.094.223-.213.042-.973.089-1.993.144-3.056.055-1.064.114-2.133.175-3.21.062-1.079.121-2.149.175-3.214.04-.777.08-1.53.12-2.258l.397.754c.295.563.603 1.156.926 1.781.322.624.644 1.257.966 1.901.301.604.589 1.174.86 1.71l.058.114c.288.571.546 1.079.773 1.523l.525 1.038a.224.224 0 00.199.124h1.462c.086 0 .165-.05.202-.127.118-.249.312-.633.593-1.176.275-.528.581-1.123.918-1.782l1.049-2.059c.364-.713.704-1.383 1.019-2.008.317-.625.591-1.171.825-1.638l.101-.203c.013.238.028.499.042.784.034.666.075 1.395.124 2.184l.144 2.459.132 2.481zm5.177 2.988a5.38 5.38 0 001.826 1.042 6.825 6.825 0 002.202.352 7.372 7.372 0 002.463-.404c.323-.112.604-.231.834-.352.222-.117.393-.214.508-.287a.224.224 0 00.072-.304l-.597-.989a.222.222 0 00-.302-.077 9.627 9.627 0 01-1.094.512c-.459.187-1.03.282-1.697.282-1.137 0-2.06-.275-2.744-.817-.615-.486-1.014-1.17-1.188-2.034.3.017.592.028.87.033.364.008.769.01 1.209.01 1.15 0 2.118-.081 2.878-.241.768-.162 1.396-.394 1.864-.688.478-.302.824-.665 1.028-1.079.199-.405.3-.857.3-1.343 0-.482-.093-.939-.276-1.357a3.029 3.029 0 00-.833-1.1c-.365-.307-.825-.546-1.366-.712-.537-.163-1.165-.246-1.866-.246a6.26 6.26 0 00-2.316.418 5.423 5.423 0 00-1.836 1.181 5.356 5.356 0 00-1.203 1.825c-.284.703-.427 1.49-.427 2.338 0 .879.152 1.665.451 2.336a4.917 4.917 0 001.24 1.701zm.206-4.597c.031-.432.123-.855.274-1.259.175-.467.425-.887.742-1.249a3.448 3.448 0 011.171-.861c.463-.212 1.006-.319 1.615-.319.343 0 .678.033.995.098.313.064.594.17.838.313a1.6 1.6 0 01.561.551c.136.225.205.512.205.853 0 .248-.061.491-.18.72-.117.222-.333.419-.642.588-.324.179-.784.327-1.365.44-.59.113-1.352.171-2.265.171-.383 0-.748-.003-1.096-.01a18.192 18.192 0 01-.853-.036zm17.367 5.479c0 .123.1.223.223.223h1.359c.123 0 .223-.1.223-.223v-6.095c0-.67-.116-1.294-.346-1.856a4.106 4.106 0 00-1.002-1.457 4.541 4.541 0 00-1.59-.943c-.619-.22-1.319-.332-2.083-.332s-1.462.112-2.072.332a4.546 4.546 0 00-1.579.943c-.433.402-.77.893-1.002 1.457a4.894 4.894 0 00-.346 1.856v6.095c0 .123.1.223.222.223h1.359c.123 0 .223-.1.223-.223v-5.684c0-1.076.265-1.919.788-2.507.517-.579 1.327-.873 2.408-.873 1.082 0 1.896.294 2.419.874.529.587.797 1.43.797 2.506v5.684h-.001zm9.365-1.587a.224.224 0 00-.305-.063c-.179.115-.443.24-.783.371-.329.127-.69.191-1.073.191-.591 0-1.071-.143-1.426-.425-.34-.27-.513-.758-.513-1.452v-5.749h4.04a.222.222 0 00.207-.14c.03-.075.059-.164.089-.268a1.31 1.31 0 00.05-.371.949.949 0 00-.218-.628c-.157-.185-.408-.274-.767-.274h-3.401v-2.392a.225.225 0 00-.124-.2 1.958 1.958 0 00-.296-.108 1.54 1.54 0 00-.421-.059c-.326 0-.573.091-.733.27a.949.949 0 00-.232.653v9.492c0 .465.07.899.209 1.289.14.399.355.749.637 1.039.282.29.642.519 1.069.682.424.16.928.241 1.5.241.397 0 .768-.033 1.103-.098a4.906 4.906 0 001.528-.548c.181-.101.321-.192.414-.27a.222.222 0 00.043-.297l-.597-.886zm2.351 1.006c.393.327.943.595 1.636.794.681.197 1.591.297 2.707.297.958 0 1.821-.039 2.565-.114a26.16 26.16 0 001.735-.219.222.222 0 00.185-.219v-6.156c0-1.564-.487-2.719-1.449-3.432-.941-.698-2.268-1.053-3.942-1.053-.813 0-1.472.072-1.958.215-.499.147-.82.28-.978.406-.13.098-.24.212-.327.34a.896.896 0 00-.153.518c0 .193.049.371.146.527.09.147.196.267.316.354a.225.225 0 00.282-.017c.108-.1.354-.266.92-.492.453-.181 1.056-.273 1.792-.273.477 0 .94.044 1.377.131.422.083.799.237 1.121.459.318.218.577.519.773.896.182.352.28.802.293 1.338l-.318-.036a18.401 18.401 0 00-.812-.072l-.938-.062c-1.33-.085-2.486-.007-3.346.223-.646.173-1.169.415-1.553.72a2.611 2.611 0 00-.843 1.137c-.159.426-.24.907-.24 1.427 0 .408.066.819.195 1.222.14.422.413.806.814 1.141zm.82-2.363c0-.386.07-.711.209-.964a1.56 1.56 0 01.597-.604c.268-.157.6-.268.984-.333.4-.066.852-.1 1.344-.1 1.01 0 1.785.041 2.302.121.365.057.625.099.79.129v3.449c-.165.036-.4.08-.701.132-.426.072-1.085.109-1.96.109-1.311 0-2.253-.166-2.799-.493-.516-.31-.766-.783-.766-1.446zm13.117 2.627l-.412-.99a.227.227 0 00-.133-.126.228.228 0 00-.181.015c-.316.173-.669.206-.877.085-.193-.115-.234-.35-.234-.528V10.22a.22.22 0 00-.123-.199 1.813 1.813 0 00-.294-.106 1.462 1.462 0 00-.423-.061c-.326 0-.573.091-.732.269a.944.944 0 00-.232.654v12.722c0 1.354.811 2.263 2.018 2.263.415 0 .7-.043 1.513-.434a.222.222 0 00.11-.285zm-.103.042zm-60.37 18.594c.123 0 .223-.1.223-.223v-6.51h8.615v6.51c0 .123.1.223.223.223h1.42c.123 0 .222-.1.222-.223v-13.94a.221.221 0 00-.107-.19 1.746 1.746 0 00-.321-.144 1.44 1.44 0 00-.473-.074c-.328 0-.576.096-.737.285a1.022 1.022 0 00-.227.679v5.193h-8.615v-5.769a.225.225 0 00-.109-.192 1.602 1.602 0 00-.773-.196c-.342 0-.596.096-.756.284-.152.177-.228.406-.228.68v13.384c0 .123.1.223.223.223h1.42zm15.415-.063a6.818 6.818 0 002.203.352 7.387 7.387 0 002.462-.404 6.03 6.03 0 00.834-.353c.225-.119.392-.212.509-.286a.225.225 0 00.072-.304l-.597-.989a.224.224 0 00-.302-.078 9.492 9.492 0 01-1.096.512c-.457.187-1.028.282-1.696.282-1.138 0-2.061-.275-2.744-.817-.614-.486-1.014-1.17-1.189-2.035.302.018.595.029.871.033.364.008.768.01 1.209.01 1.151 0 2.119-.081 2.877-.241.769-.162 1.396-.393 1.865-.688.479-.303.825-.666 1.028-1.079.199-.405.3-.857.3-1.344 0-.48-.093-.936-.276-1.356a3.018 3.018 0 00-.833-1.101c-.366-.307-.826-.546-1.365-.711-.535-.163-1.163-.246-1.866-.246-.834 0-1.613.14-2.316.417a5.43 5.43 0 00-1.836 1.182 5.356 5.356 0 00-1.203 1.825 6.225 6.225 0 00-.429 2.338c0 .877.152 1.663.453 2.336a4.919 4.919 0 001.24 1.703 5.385 5.385 0 001.825 1.042zm-1.62-5.638a4.53 4.53 0 01.274-1.259c.175-.467.424-.887.742-1.249a3.444 3.444 0 011.17-.861c.463-.212 1.007-.319 1.616-.319.342 0 .677.033.995.098.312.064.594.169.838.313.234.137.422.323.561.551.136.225.205.511.205.852 0 .248-.061.491-.18.72-.118.222-.334.42-.643.588-.325.179-.784.327-1.364.44-.589.113-1.351.171-2.265.171-.383 0-.748-.003-1.097-.01a16.96 16.96 0 01-.852-.035zm16.992-4.151c-.942-.699-2.268-1.054-3.943-1.054-.812 0-1.471.072-1.958.215-.498.147-.819.28-.978.406a1.469 1.469 0 00-.327.341.895.895 0 00-.152.518c0 .194.049.372.146.528.091.148.197.267.316.353a.225.225 0 00.283-.017c.156-.145.465-.31.92-.492.453-.181 1.055-.273 1.791-.273.476 0 .939.044 1.377.131.421.083.799.237 1.121.459.318.218.577.519.772.897.182.351.28.8.293 1.338l-.318-.036a18.485 18.485 0 00-.811-.072 91.101 91.101 0 00-.939-.062c-1.328-.085-2.484-.007-3.345.223-.647.173-1.169.415-1.553.72a2.611 2.611 0 00-.843 1.137c-.159.427-.24.907-.24 1.426 0 .408.066.819.196 1.222.135.423.408.807.81 1.143.393.327.943.594 1.636.794.682.197 1.592.297 2.707.297.959 0 1.822-.039 2.566-.114.772-.078 1.34-.15 1.736-.219a.222.222 0 00.184-.22V37.26c0-1.565-.487-2.72-1.447-3.433zm-.336 4.934v3.449c-.165.036-.4.08-.701.132-.427.073-1.086.11-1.96.11-1.311 0-2.253-.166-2.799-.494-.516-.309-.767-.782-.767-1.446 0-.385.07-.71.209-.963a1.55 1.55 0 01.596-.604c.27-.157.601-.269.985-.333.4-.066.852-.1 1.343-.1 1.017 0 1.792.041 2.303.121.367.056.625.098.791.128zm6.851 3.496a.216.216 0 00-.132-.124.217.217 0 00-.181.015c-.322.176-.665.21-.877.085-.193-.115-.234-.35-.234-.528v-13.28a.22.22 0 00-.124-.199 1.882 1.882 0 00-.295-.108 1.541 1.541 0 00-.422-.059c-.326 0-.573.091-.732.27a.943.943 0 00-.232.653v12.723c0 1.354.811 2.263 2.018 2.263.415 0 .7-.043 1.513-.434a.224.224 0 00.109-.286l-.411-.991zm6.883-.387a.224.224 0 00-.305-.063 4.64 4.64 0 01-.783.371c-.33.126-.691.19-1.073.19-.591 0-1.071-.143-1.426-.425-.34-.269-.512-.758-.512-1.452v-5.749h4.04a.224.224 0 00.207-.14c.03-.075.059-.164.089-.268.033-.114.05-.239.05-.371a.944.944 0 00-.218-.627c-.156-.185-.407-.275-.767-.275H51.92V30.67a.223.223 0 00-.124-.2 1.892 1.892 0 00-.295-.107 1.503 1.503 0 00-.421-.06c-.326 0-.573.091-.733.27a.949.949 0 00-.232.653v9.491c0 .464.07.898.209 1.289.14.4.355.75.637 1.038.282.29.641.52 1.069.682.421.16.926.241 1.5.241.401 0 .771-.033 1.103-.097.335-.064.632-.148.885-.249a5.52 5.52 0 00.643-.3c.183-.101.322-.192.415-.27a.22.22 0 00.043-.296l-.6-.885zm6.934-9.096c-.539 0-1.034.054-1.472.16a5.373 5.373 0 00-1.172.42 4.024 4.024 0 00-1.085.796v-5.726a.222.222 0 00-.126-.2 1.879 1.879 0 00-.715-.166c-.326 0-.572.091-.733.27a.952.952 0 00-.232.653v14.476c0 .123.1.223.223.223H59c.123 0 .223-.1.223-.223v-5.663c0-.468.072-.914.214-1.328.141-.409.354-.771.634-1.075a2.957 2.957 0 011.064-.727c.431-.18.945-.271 1.53-.271.587 0 1.076.075 1.453.222.367.144.665.353.886.624.225.273.387.614.481 1.012.099.417.15.894.15 1.419v5.787c0 .123.1.223.223.223h1.358c.123 0 .223-.1.223-.223v-6.486c0-1.307-.405-2.346-1.203-3.088-.794-.736-1.898-1.109-3.283-1.109zM22.995 47.279a1.465 1.465 0 00-.475-.075c-.328 0-.576.096-.736.284a1.022 1.022 0 00-.228.68v6.918c0 .908-.084 1.715-.251 2.397-.163.665-.43 1.224-.79 1.661-.354.432-.831.759-1.417.972-.596.217-1.336.326-2.199.326-.862 0-1.602-.11-2.2-.326-.584-.212-1.06-.539-1.417-.972-.361-.437-.626-.996-.789-1.661-.166-.679-.251-1.486-.251-2.398V47.61a.222.222 0 00-.11-.192 1.829 1.829 0 00-.318-.142 1.459 1.459 0 00-.474-.074c-.328 0-.576.096-.736.284a1.02 1.02 0 00-.228.68v6.939c0 2.282.528 4.043 1.568 5.233 1.048 1.198 2.715 1.805 4.956 1.805s3.907-.607 4.954-1.805c1.041-1.188 1.569-2.949 1.569-5.233V47.61a.225.225 0 00-.109-.192 2.218 2.218 0 00-.319-.139zm11.752 12.213a41.745 41.745 0 00-1.987-1.918 58.738 58.738 0 00-2.212-1.895 64.374 64.374 0 00-2.101-1.637c.285-.227.618-.496.999-.808.487-.397 1.001-.815 1.543-1.253s1.093-.88 1.657-1.325c.562-.445 1.074-.853 1.535-1.224.458-.369.849-.681 1.171-.934.324-.254.528-.417.612-.486a.223.223 0 00.033-.312 2.308 2.308 0 00-.356-.325 1.14 1.14 0 00-.724-.233c-.166 0-.326.02-.478.059a1.826 1.826 0 00-.46.199 4.451 4.451 0 00-.464.324c-.16.124-.35.277-.569.455l-.669.534c-.309.247-.67.539-1.083.875-.411.336-.851.692-1.317 1.069-.467.376-.925.75-1.372 1.121l-1.247 1.039-.58.486v-5.774a.223.223 0 00-.111-.193 1.602 1.602 0 00-.771-.195c-.342 0-.597.096-.758.285a1.02 1.02 0 00-.227.679v13.384c0 .123.1.223.223.223h1.421c.123 0 .223-.1.223-.223v-6.402c.685.476 1.373.988 2.048 1.524.8.636 1.56 1.266 2.258 1.871a44.865 44.865 0 013.297 3.159.22.22 0 00.163.072h1.833a.222.222 0 00.202-.13.225.225 0 00-.033-.238 46.632 46.632 0 00-1.699-1.853z" fill="#fff"/></svg>