<?xml version="1.0" encoding="UTF-8"?>
<svg id="Layer_1" data-name="Layer 1" xmlns="http://www.w3.org/2000/svg" viewBox="0 0 83.08 83.08">
  <defs>
    <style>
      .cls-1 {
        fill: #009fe3;
      }

      .cls-2 {
        fill: #fff;
      }
    </style>
  </defs>
  <g id="Layer_2" data-name="Layer 2">
    <g id="Layer_1-2" data-name="Layer 1-2">
      <circle class="cls-1" cx="41.54" cy="41.54" r="41.54"/>
      <path class="cls-2" d="m11.4,22.36c-.03-.3.08-.6.29-.82.2-.18.45-.3.71-.35.18-.04.52-.07,1.02-.12s1.23-.06,2.17-.06c1.91,0,3.34.36,4.29,1.09.93.69,1.47,1.79,1.44,2.96.03.77-.19,1.54-.63,2.17-.44.59-1.04,1.05-1.72,1.33.25.35.51.74.78,1.17.26.41.52.87.78,1.32s.5.91.74,1.36.46.88.66,1.28h-2.53c-.09-.21-.25-.52-.47-.94s-.46-.87-.71-1.33-.51-.92-.77-1.35c-.19-.34-.4-.67-.62-.99-.21.02-.41.04-.64.05s-.44,0-.63,0c-.41,0-.82,0-1.21-.05s-.64-.06-.8-.08v4.69h-2.14v-11.33Zm2.14,4.8c.16.02.41.05.71.09.46.04.91.06,1.37.05.55.01,1.1-.04,1.64-.16.38-.08.75-.24,1.07-.46.26-.17.46-.42.58-.7.12-.29.18-.6.18-.91,0-.29-.06-.58-.16-.86-.12-.28-.32-.53-.57-.71-.33-.23-.7-.4-1.09-.49-.57-.14-1.15-.2-1.73-.18-.61,0-1.07,0-1.39.04-.21.01-.42.03-.63.07v4.22Z"/>
      <path class="cls-2" d="m30.91,33.02c-.09.06-.25.15-.46.25-.25.13-.51.23-.78.31-.35.11-.71.19-1.08.25-.44.08-.89.11-1.34.11-.65,0-1.29-.1-1.91-.32-1.17-.39-2.12-1.27-2.6-2.42-.27-.65-.4-1.35-.38-2.05,0-.69.12-1.37.37-2,.24-.58.6-1.1,1.05-1.53.45-.44.98-.78,1.57-1,.63-.24,1.3-.36,1.98-.35.57,0,1.14.07,1.68.25.45.14.86.37,1.23.66.32.26.58.59.76.96.33.74.33,1.58,0,2.33-.18.37-.47.68-.82.89-.51.29-1.06.49-1.64.58-.85.16-1.72.23-2.59.21h-.68l-.66-.04c.09.6.41,1.15.9,1.5.64.42,1.4.62,2.16.57.29,0,.59-.02.88-.07.24-.04.49-.1.72-.18.19-.06.37-.14.55-.22l.34-.16.75,1.46Zm-6.41-4.31h1.59c.55.01,1.1-.03,1.64-.13.34-.06.66-.17.97-.33.18-.11.33-.27.42-.46.07-.17.11-.35.11-.53.01-.42-.2-.8-.56-1.02-.42-.25-.89-.37-1.38-.35-.41,0-.81.07-1.19.24-.33.15-.62.36-.86.63-.23.26-.42.57-.54.9-.13.33-.2.68-.21,1.04Z"/>
      <path class="cls-2" d="m32.59,22.91c-.03-.28.08-.55.29-.74.24-.17.53-.25.82-.23.21,0,.41.03.61.08.19.05.31.09.37.12v2.39h2.64c.3-.03.61.06.85.25.18.2.26.46.25.72,0,.2-.03.39-.09.57-.04.13-.09.25-.15.37h-3.51v4.07c0,.27.03.53.13.78.08.19.2.35.36.48.16.12.34.21.53.25.21.05.42.07.63.07.33,0,.67-.05.98-.16.23-.08.45-.18.66-.31l.82,1.39c-.1.07-.23.16-.41.27-.21.12-.42.23-.65.31-.28.1-.57.18-.86.25-.34.07-.69.1-1.04.1-1.07,0-1.88-.27-2.43-.82-.56-.58-.86-1.37-.82-2.18l.02-8.04Z"/>
      <path class="cls-2" d="m39.6,21.21c-.02-.28.09-.55.3-.73.24-.17.53-.26.82-.24.2,0,.41.03.6.08.18.06.3.09.36.12v5.02c.31-.34.68-.62,1.09-.82.59-.28,1.24-.41,1.9-.39.52,0,1.04.07,1.54.24.45.15.86.39,1.21.7.35.32.62.72.79,1.16.19.52.29,1.08.27,1.64v5.7h-2.08v-5.09c.05-.65-.13-1.29-.5-1.82-.34-.41-.91-.62-1.73-.62-.7-.05-1.38.22-1.87.72-.44.54-.66,1.22-.63,1.91v4.92h-2.08v-12.49Z"/>
      <path class="cls-2" d="m51.46,20.43c.34,0,.66.12.89.36.49.49.49,1.29,0,1.78-.49.49-1.29.49-1.78,0-.49-.49-.49-1.28,0-1.77.23-.24.56-.37.89-.36Zm-1.04,5.07c-.03-.28.08-.55.3-.74.24-.17.53-.25.82-.23.2,0,.41.03.6.08.18.05.3.09.36.12v8.96h-2.08v-8.19Z"/>
      <path class="cls-2" d="m54.45,28.16c-.01-.56.1-1.13.34-1.64.22-.47.54-.89.93-1.23.41-.35.89-.61,1.41-.77.58-.18,1.18-.27,1.78-.26.61,0,1.21.08,1.79.26.52.16,1,.42,1.41.77.39.34.71.76.92,1.23.23.52.34,1.08.33,1.64v5.53h-2.08v-4.98c.05-.68-.17-1.36-.6-1.89-1.02-.86-2.52-.86-3.55,0-.43.53-.64,1.21-.59,1.89v4.98h-2.08v-5.53Z"/>
      <path class="cls-2" d="m65.21,21.21c-.02-.28.09-.55.29-.73.24-.17.53-.26.82-.24.2,0,.41.03.6.08.18.06.3.09.36.12v7.45c.16-.11.38-.27.67-.48s.6-.45.96-.7.72-.52,1.09-.82.74-.54,1.08-.78c.23-.17.47-.32.73-.45.27-.11.56-.17.86-.16.29,0,.58.09.82.26.18.12.32.27.44.45-.34.3-.69.58-1.05.85-.44.34-.89.67-1.36,1s-.9.64-1.32.93-.71.5-.89.63c1.01.75,1.96,1.58,2.83,2.49.77.8,1.49,1.65,2.15,2.55h-2.59c-.28-.34-.59-.7-.94-1.07s-.72-.73-1.11-1.09-.82-.71-1.21-1.04-.8-.64-1.18-.92v4.16h-2.06v-12.48Z"/>
      <path class="cls-2" d="m11.31,48.05c0-.32.03-.78.07-1.37s.07-1.26.11-2,.09-1.5.13-2.3.09-1.56.13-2.3.08-1.4.12-1.99.07-1.04.09-1.36c-.01-.36.15-.71.44-.93.27-.18.59-.28.91-.27.32-.01.64.04.93.16.19.08.36.18.51.31l.66,1.34.97,1.95c.34.7.69,1.38,1.04,2.05.34.68.64,1.23.87,1.7.21-.41.46-.93.78-1.54s.62-1.23.93-1.86l.88-1.77c.27-.55.48-.96.63-1.26.14-.32.36-.61.64-.82.29-.19.64-.29.98-.27.3,0,.61.04.89.14.16.05.32.13.46.23.02.34.06.82.09,1.48s.07,1.36.12,2.14.09,1.61.14,2.46.1,1.68.15,2.46.09,1.5.12,2.14.06,1.13.08,1.47h-2.14c0-.2-.03-.53-.05-1.01s-.06-1.04-.09-1.67-.07-1.3-.11-2-.07-1.36-.11-1.99-.07-1.18-.1-1.64-.05-.82-.06-.99l-.44.87-.59,1.2-.66,1.36c-.23.48-.46.93-.66,1.36s-.41.82-.59,1.21l-.41.89h-1.8c-.15-.33-.36-.78-.64-1.36s-.58-1.19-.9-1.85l-.97-1.95c-.32-.65-.61-1.2-.88-1.67,0,.29-.02.68-.06,1.17-.03.48-.06,1.03-.09,1.64s-.06,1.23-.1,1.85-.07,1.26-.1,1.85-.06,1.14-.08,1.64-.05.88-.06,1.17l-2.14-.03Z"/>
      <path class="cls-2" d="m35.36,47.37c-.1.06-.25.15-.46.25-.25.13-.51.23-.78.31-.35.11-.71.19-1.08.25-.44.08-.89.11-1.34.11-.65,0-1.29-.1-1.91-.31-1.17-.39-2.12-1.27-2.6-2.42-.27-.65-.4-1.35-.38-2.05,0-.69.12-1.37.37-2,.24-.58.59-1.11,1.04-1.55.45-.44.99-.78,1.57-1,.63-.24,1.3-.36,1.98-.35.57,0,1.14.07,1.68.25.45.14.86.36,1.23.66.64.52,1.02,1.3,1.01,2.12,0,.4-.08.79-.24,1.16-.18.37-.47.68-.82.89-.51.29-1.06.49-1.64.58-.85.16-1.72.23-2.59.21h-.68l-.68-.02c.09.6.41,1.15.89,1.51.64.42,1.4.62,2.16.57.29,0,.59-.02.88-.07.24-.04.48-.1.72-.18.19-.06.37-.14.55-.22l.34-.16.78,1.46Zm-6.41-4.31h1.59c.55.01,1.1-.03,1.64-.13.34-.06.66-.17.97-.33.2-.1.36-.26.46-.46.07-.17.11-.35.11-.53,0-.42-.22-.81-.59-1.02-.42-.25-.89-.37-1.38-.35-.41,0-.81.07-1.19.24-.33.15-.62.36-.86.63-.23.26-.42.57-.54.9-.13.33-.2.68-.21,1.04Z"/>
      <path class="cls-2" d="m36.99,42.52c0-.56.11-1.12.34-1.64.22-.47.54-.89.93-1.23.41-.34.89-.61,1.41-.77.58-.18,1.18-.27,1.78-.26.61,0,1.21.08,1.79.26.52.16,1,.42,1.41.77.39.34.71.76.92,1.23.23.52.34,1.08.33,1.64v5.53h-2.08v-4.98c.05-.68-.16-1.36-.6-1.89-1.03-.86-2.53-.86-3.55,0-.43.53-.64,1.21-.59,1.89v5h-2.08v-5.55Z"/>
      <path class="cls-2" d="m47.42,37.26c-.03-.28.08-.55.3-.74.24-.17.53-.25.82-.23.21,0,.41.03.62.08.19.05.31.09.37.12v2.39h2.64c.3-.03.61.06.85.25.18.2.26.46.25.72,0,.2-.03.39-.09.57-.04.13-.09.25-.15.37h-3.5v4.07c0,.27.03.53.13.78.08.19.2.35.36.48.16.12.34.21.53.25.21.05.42.07.63.07.34,0,.67-.05.99-.16.23-.08.45-.18.66-.31l.84,1.39c-.1.07-.24.16-.41.27-.21.12-.42.23-.65.31-.28.1-.57.18-.86.25-.34.07-.69.1-1.04.1-1.07,0-1.88-.27-2.43-.82-.56-.58-.86-1.37-.82-2.18l-.03-8.04Z"/>
      <path class="cls-2" d="m63.32,48.01c-.12.02-.31.05-.57.08s-.57.06-.92.09-.75.06-1.19.08-.89.04-1.37.04c-.78.02-1.56-.06-2.33-.25-.51-.12-1-.34-1.42-.66-.32-.24-.57-.57-.71-.95-.13-.35-.19-.73-.19-1.1,0-.45.07-.89.23-1.31.16-.38.42-.71.75-.95.41-.28.87-.48,1.36-.57.67-.14,1.36-.2,2.05-.19.46,0,.9,0,1.31.05s.73.06.93.08c.01-.36-.06-.73-.21-1.06-.13-.27-.33-.5-.57-.66-.27-.17-.57-.28-.88-.33-.37-.06-.75-.09-1.13-.09-.57-.02-1.13.06-1.67.24-.29.1-.57.23-.82.41-.11-.1-.22-.22-.3-.35-.13-.18-.2-.4-.19-.62,0-.18.05-.35.14-.5.11-.19.28-.34.48-.44.29-.15.61-.25.93-.3.49-.08.98-.12,1.48-.11.66,0,1.32.06,1.96.21.55.12,1.06.35,1.52.66.43.31.77.72,1,1.21.25.57.37,1.18.35,1.8v5.49Zm-2.06-4.05c-.12-.02-.35-.06-.68-.11-.5-.06-1-.08-1.51-.07-.62-.05-1.25.09-1.8.38-.38.26-.6.71-.57,1.18,0,.21.04.41.12.6.09.19.23.35.41.46.24.15.51.25.8.29.41.07.82.11,1.23.1.45,0,.89-.02,1.33-.07.33-.04.55-.07.66-.1l.02-2.67Z"/>
      <path class="cls-2" d="m67.94,48.3c-.33,0-.65-.04-.97-.13-.31-.08-.6-.22-.86-.41-.26-.21-.47-.47-.62-.78-.17-.37-.25-.78-.24-1.19v-10.24c-.02-.28.08-.55.29-.74.24-.17.53-.25.82-.23.21,0,.41.03.61.08.19.06.31.09.37.12v10.6c-.03.29.05.59.24.82.16.16.38.25.6.25.28,0,.56-.05.82-.16l.57,1.57c-.29.16-.59.27-.91.34-.24.05-.48.08-.73.09Z"/>
      <path class="cls-2" d="m11.4,50.89c-.02-.29.09-.57.31-.76.24-.18.54-.26.84-.25.22,0,.43.03.64.09l.39.13v12.3h-2.17v-11.51Z"/>
      <path class="cls-2" d="m18.46,62.65c-.33,0-.65-.04-.97-.13-.31-.08-.6-.23-.86-.43-.27-.21-.49-.47-.64-.78-.17-.37-.25-.78-.24-1.19v-10.22c-.02-.28.08-.55.29-.74.24-.17.53-.25.82-.23.21,0,.41.03.61.08.19.06.31.09.37.12v10.6c-.03.29.05.59.24.82.16.16.38.25.6.25.28,0,.56-.05.82-.16l.57,1.57c-.29.16-.59.27-.91.34-.23.05-.47.08-.71.09Z"/>
      <path class="cls-2" d="m24.12,62.65c-.33,0-.65-.04-.97-.13-.31-.08-.6-.23-.86-.43-.26-.21-.47-.47-.62-.78-.17-.37-.25-.78-.24-1.19v-10.22c-.03-.28.08-.55.29-.74.24-.17.53-.25.82-.23.21,0,.41.03.61.08.19.06.31.09.37.12v10.6c-.03.29.05.59.24.82.16.16.38.25.6.25.28,0,.56-.05.82-.16l.56,1.57c-.28.16-.59.28-.91.34-.24.05-.48.08-.73.09Z"/>
      <path class="cls-2" d="m27.04,56.87c-.01-.56.1-1.13.34-1.64.22-.47.54-.89.93-1.23.41-.35.89-.61,1.41-.77.58-.18,1.18-.27,1.78-.26.61,0,1.21.08,1.79.26.52.16,1,.42,1.41.77.39.34.71.76.92,1.23.23.52.34,1.08.33,1.64v5.53h-2.08v-4.98c.05-.68-.17-1.36-.6-1.89-.47-.46-1.11-.69-1.77-.65-.66-.05-1.31.19-1.78.65-.43.53-.64,1.21-.59,1.89v5h-2.08v-5.54Z"/>
      <path class="cls-2" d="m45.93,61.72c-.1.06-.25.15-.46.25-.25.13-.51.23-.78.31-.35.11-.71.19-1.08.25-.44.08-.89.11-1.34.11-.65,0-1.29-.1-1.91-.31-.57-.2-1.1-.51-1.55-.92-.45-.42-.81-.93-1.05-1.5-.27-.65-.4-1.35-.39-2.05,0-.69.12-1.37.38-2,.24-.58.59-1.11,1.04-1.55.45-.44.99-.78,1.57-1,.63-.24,1.3-.36,1.98-.35.57,0,1.14.07,1.68.25.45.14.86.36,1.23.66.64.52,1.02,1.3,1.01,2.12,0,.4-.08.79-.24,1.16-.18.37-.47.68-.82.89-.51.29-1.06.49-1.64.58-.85.15-1.72.22-2.59.21h-.68l-.68-.02c.09.6.41,1.15.91,1.5.64.42,1.4.62,2.16.57.29,0,.59-.02.87-.07.24-.04.49-.1.72-.18.19-.06.37-.14.55-.22l.34-.16.77,1.47Zm-6.39-4.31h1.59c.55.01,1.1-.03,1.64-.13.34-.06.66-.17.97-.33.2-.1.36-.26.46-.46.07-.17.11-.35.11-.53.02-.42-.2-.82-.56-1.04-.42-.24-.89-.37-1.38-.35-.41,0-.81.07-1.19.24-.33.15-.62.36-.86.63-.23.27-.42.57-.54.9-.14.34-.22.69-.24,1.06Z"/>
      <path class="cls-2" d="m48.17,60.12c.14.09.3.17.46.24.27.12.54.22.82.3.36.11.73.2,1.1.26.45.08.9.11,1.35.11.53.02,1.05-.07,1.55-.25.37-.12.62-.46.6-.85.02-.31-.13-.6-.39-.78-.42-.23-.89-.35-1.37-.37l-1.43-.16c-.45-.04-.9-.13-1.34-.27-.38-.11-.73-.29-1.05-.52-.29-.22-.52-.5-.68-.82-.17-.36-.26-.76-.25-1.16,0-.38.07-.76.23-1.11.16-.36.41-.67.72-.92.38-.29.82-.51,1.29-.63.63-.16,1.27-.24,1.92-.23,1-.04,2,.1,2.95.41.7.28,1.05.64,1.05,1.09,0,.13-.03.26-.08.38-.05.1-.11.2-.18.3-.06.08-.13.15-.21.21-.05.04-.11.07-.16.1-.1-.08-.21-.16-.32-.23-.21-.13-.43-.23-.66-.31-.33-.11-.66-.21-1-.27-.44-.08-.9-.12-1.35-.12-1.41,0-2.12.37-2.12,1.12,0,.3.15.57.41.72.36.19.75.3,1.15.34l1.86.24c.84.07,1.65.35,2.36.82.56.44.87,1.14.82,1.85.02.86-.38,1.68-1.08,2.19-.73.55-1.77.82-3.13.82-.6,0-1.2-.04-1.79-.14-.47-.08-.94-.2-1.39-.34-.33-.1-.65-.22-.96-.37-.17-.08-.33-.17-.48-.27l.79-1.38Z"/>
      <path class="cls-2" d="m57.92,60.12c.14.09.3.17.46.24.61.27,1.26.46,1.92.57.45.08.9.11,1.35.11.53.02,1.05-.07,1.55-.25.37-.12.62-.46.6-.85.02-.31-.13-.6-.38-.78-.42-.23-.89-.35-1.37-.37l-1.42-.16c-.45-.04-.9-.13-1.34-.27-.38-.11-.73-.29-1.04-.53-.29-.22-.52-.5-.68-.82-.17-.36-.26-.76-.25-1.16,0-.38.07-.76.23-1.11.16-.36.41-.67.72-.92.38-.29.82-.51,1.29-.63.63-.16,1.27-.24,1.92-.23,1-.04,2,.1,2.95.41.7.28,1.05.64,1.05,1.09,0,.13-.03.26-.08.38-.05.11-.11.2-.18.3-.06.08-.13.15-.21.21-.05.04-.11.07-.16.1-.1-.08-.21-.16-.32-.23-.21-.13-.43-.23-.66-.31-.33-.12-.66-.21-1-.27-.44-.08-.9-.12-1.35-.12-1.41,0-2.12.37-2.12,1.12,0,.3.15.57.41.72.36.19.75.3,1.15.34l1.86.24c.84.07,1.65.35,2.35.82.56.45.87,1.14.82,1.85.02.86-.39,1.68-1.09,2.19-.72.55-1.77.82-3.13.82-.6,0-1.2-.04-1.79-.14-.47-.08-.94-.2-1.4-.34-.33-.1-.65-.23-.96-.37-.17-.08-.32-.17-.47-.27l.78-1.37Z"/>
      <path class="cls-2" d="m67.33,61.25c0-.19.04-.37.11-.55.07-.17.17-.32.3-.45.13-.13.29-.23.46-.3.18-.07.36-.11.55-.11.77,0,1.4.62,1.41,1.39,0,0,0,0,0,.01,0,.19-.04.38-.11.56-.07.17-.17.32-.3.46-.13.13-.28.24-.45.31-.17.08-.36.12-.55.12-.38,0-.74-.15-1-.43-.27-.27-.43-.63-.42-1.01Z"/>
    </g>
  </g>
</svg>